<svg id="svg" version="1.1" width="800" height="800" xmlns="http://www.w3.org/2000/svg"><path d="M442.964 132.757 C 441.569 133.715,436.842 138.168,432.460 142.652 C 425.134 150.146,424.088 150.860,419.496 151.506 C 414.950 152.145,409.911 153.735,395.500 159.080 C 388.762 161.579,384.815 161.461,373.822 158.429 C 368.537 156.971,359.712 155.498,353.443 155.027 C 347.362 154.570,340.612 153.670,338.443 153.026 C 336.275 152.383,332.025 152.001,329.000 152.178 L 323.500 152.500 323.182 156.375 C 322.929 159.462,323.403 160.811,325.516 163.016 C 326.974 164.538,329.479 166.046,331.083 166.367 C 332.687 166.687,336.000 167.861,338.445 168.975 C 340.890 170.089,343.133 171.000,343.430 171.000 C 343.727 171.000,346.164 172.350,348.846 174.000 C 353.448 176.832,354.331 177.005,364.611 177.081 C 374.668 177.156,375.271 177.267,372.500 178.536 C 365.748 181.628,351.379 179.615,344.500 174.613 C 339.902 171.271,336.324 170.000,331.510 170.000 C 326.350 170.000,324.000 172.432,324.000 177.772 C 324.000 182.274,325.999 185.823,331.276 190.687 C 335.196 194.300,336.440 194.846,342.103 195.436 C 352.648 196.535,357.896 198.193,361.824 201.666 C 366.059 205.411,364.860 205.937,359.022 202.895 C 355.654 201.139,353.640 200.850,346.902 201.156 C 337.288 201.593,335.475 203.021,336.463 209.381 C 337.642 216.974,344.319 221.913,351.565 220.554 C 353.454 220.199,355.000 220.123,355.000 220.384 C 355.000 220.645,353.002 222.207,350.560 223.855 C 348.119 225.502,344.856 227.746,343.310 228.841 C 337.661 232.842,336.686 232.622,329.057 225.621 C 324.320 221.274,320.171 218.460,316.444 217.065 C 313.390 215.922,307.979 213.415,304.420 211.494 C 297.974 208.013,297.900 208.000,284.725 207.960 C 272.622 207.923,271.726 207.797,274.159 206.475 C 277.275 204.783,278.583 199.410,277.475 192.853 C 276.028 184.285,264.810 177.085,254.686 178.226 C 245.549 179.256,240.636 183.898,240.750 191.393 C 240.872 199.471,245.335 204.146,253.365 204.608 C 255.491 204.731,257.741 205.374,258.365 206.037 C 259.247 206.975,258.387 207.070,254.500 206.463 C 244.240 204.861,201.177 206.764,196.991 209.005 C 193.168 211.051,195.187 217.279,201.144 221.816 C 202.048 222.505,206.098 223.966,210.144 225.064 C 214.190 226.161,218.850 227.746,220.500 228.586 C 224.806 230.777,253.500 230.268,253.500 228.000 C 253.500 226.832,251.897 226.435,246.250 226.206 C 242.262 226.045,239.000 225.579,239.000 225.170 C 239.000 224.762,239.787 224.348,240.750 224.249 C 241.713 224.151,244.950 223.674,247.944 223.189 C 253.211 222.337,253.535 222.422,257.944 225.793 C 263.140 229.766,269.198 232.581,274.709 233.584 C 276.794 233.963,280.750 235.166,283.500 236.256 C 289.883 238.787,303.086 239.091,307.500 236.810 C 311.677 234.651,319.145 233.725,322.398 234.961 C 334.534 239.575,292.579 242.546,271.000 238.600 C 260.485 236.677,247.113 235.572,215.118 233.980 C 202.757 233.366,189.730 232.129,184.239 231.048 C 176.311 229.489,173.979 229.374,170.121 230.356 C 166.542 231.268,164.398 231.257,160.613 230.310 C 154.983 228.902,149.971 230.317,148.080 233.850 C 146.261 237.250,146.758 246.873,148.936 250.397 C 153.980 258.558,161.859 260.633,168.517 255.555 C 171.535 253.253,173.393 252.639,177.532 252.578 C 181.316 252.521,182.614 252.843,182.266 253.750 C 181.945 254.585,182.818 255.000,184.893 255.000 C 186.988 255.000,188.000 254.511,188.000 253.500 C 188.000 252.231,190.392 252.000,203.525 252.000 L 219.050 252.000 220.024 254.750 C 221.514 258.953,222.516 260.408,224.676 261.506 C 225.765 262.060,227.463 263.320,228.449 264.306 C 231.140 266.997,233.446 266.053,233.823 262.106 C 234.110 259.115,233.910 258.790,232.073 259.271 C 229.887 259.842,229.608 259.065,230.630 255.250 C 231.117 253.435,231.935 253.004,234.867 253.020 C 241.653 253.056,253.475 255.688,260.896 258.813 C 268.103 261.849,268.475 261.900,275.539 260.801 C 282.549 259.712,283.093 259.781,292.143 262.926 C 309.530 268.968,316.202 274.452,309.338 277.062 C 304.722 278.817,293.095 276.041,283.784 270.962 C 280.513 269.177,271.304 268.773,259.431 269.892 C 245.550 271.201,227.175 270.000,223.418 267.538 C 222.145 266.704,220.389 264.514,219.514 262.671 C 217.228 257.853,213.005 255.136,206.645 254.388 C 201.595 253.795,200.952 253.957,198.453 256.456 C 196.054 258.855,195.806 259.705,196.300 263.834 C 196.607 266.400,197.164 269.289,197.537 270.253 C 198.071 271.631,197.562 272.138,195.159 272.618 C 193.478 272.954,191.345 274.066,190.419 275.089 C 189.005 276.652,188.927 277.409,189.931 279.833 C 191.886 284.552,198.193 290.060,201.569 289.997 C 203.181 289.967,214.702 289.693,227.171 289.389 C 240.397 289.066,254.353 289.281,260.671 289.905 C 270.437 290.870,271.726 291.233,273.801 293.603 C 276.347 296.510,276.360 298.744,273.840 300.331 C 272.573 301.129,270.912 300.714,266.840 298.585 C 259.609 294.805,250.598 292.000,245.685 292.000 C 240.739 292.000,234.167 295.049,230.060 299.250 C 227.637 301.728,227.000 303.247,227.000 306.545 C 227.000 310.145,227.627 311.355,231.621 315.464 L 236.241 320.218 249.371 319.967 C 268.251 319.607,267.474 319.460,272.515 324.359 C 278.944 330.607,278.791 333.920,271.750 340.974 C 265.211 347.525,259.707 351.279,254.392 352.811 C 249.220 354.302,234.319 356.957,230.985 356.982 C 226.699 357.013,220.826 353.090,212.494 344.630 C 201.241 333.203,195.346 330.236,182.420 329.496 C 176.964 329.184,170.250 328.522,167.500 328.027 C 164.750 327.531,158.675 326.613,154.000 325.986 C 143.932 324.636,141.224 323.723,134.231 319.319 C 129.818 316.540,128.010 316.000,123.115 316.000 C 118.663 316.000,116.624 316.508,114.560 318.132 C 111.080 320.869,111.719 324.039,116.808 329.288 C 120.666 333.267,124.622 334.033,124.361 330.750 C 124.266 329.549,124.946 329.000,126.529 329.000 C 130.149 329.000,132.000 327.949,132.000 325.893 C 132.000 323.653,133.291 323.440,134.926 325.411 C 135.740 326.392,135.773 327.022,135.032 327.480 C 132.372 329.124,135.559 330.133,141.362 329.484 C 146.504 328.909,147.289 329.017,146.200 330.149 C 145.450 330.929,142.641 331.533,139.551 331.578 C 135.977 331.630,133.648 332.209,132.537 333.321 C 130.239 335.618,131.443 337.000,135.743 337.000 C 139.730 337.000,150.795 334.231,152.711 332.753 C 153.467 332.170,155.159 332.207,157.211 332.852 C 159.020 333.420,166.125 333.840,173.000 333.786 C 188.079 333.667,188.529 333.871,204.431 348.013 C 210.299 353.231,217.440 358.780,220.300 360.344 C 225.265 363.059,225.951 363.165,235.500 362.706 C 256.616 361.691,274.775 352.272,281.606 338.791 C 284.623 332.838,284.613 330.144,281.555 324.109 C 278.078 317.248,270.650 310.963,262.008 307.573 C 254.859 304.768,254.736 304.756,251.139 306.503 C 245.097 309.436,240.996 310.025,237.315 308.487 C 232.506 306.478,232.929 303.712,238.550 300.418 C 244.176 297.121,248.629 297.415,258.000 301.704 C 268.529 306.522,269.925 307.000,273.470 307.000 C 277.615 307.000,282.601 303.091,283.464 299.165 C 284.586 294.053,275.455 281.644,268.673 279.066 C 267.278 278.535,253.505 277.784,238.068 277.396 C 214.190 276.795,210.000 276.468,210.000 275.201 C 210.000 273.954,211.262 273.817,217.750 274.361 C 237.440 276.011,257.167 276.289,263.939 275.011 C 271.100 273.660,275.711 274.435,284.500 278.464 C 293.865 282.758,298.583 284.000,305.530 284.000 C 312.586 284.000,312.881 283.900,315.882 280.482 C 320.259 275.496,320.640 272.970,317.711 268.359 C 316.363 266.236,314.414 263.782,313.380 262.905 C 310.440 260.411,301.049 255.367,295.000 253.032 C 291.975 251.864,287.955 250.194,286.066 249.320 C 283.345 248.061,280.470 247.842,272.214 248.263 C 263.097 248.729,261.572 248.572,260.006 247.006 C 258.976 245.976,255.945 244.945,252.859 244.574 C 249.911 244.219,243.000 243.281,237.500 242.489 C 232.000 241.697,216.925 240.555,204.000 239.951 C 191.075 239.347,177.733 238.611,174.350 238.314 C 168.235 237.777,168.174 237.798,163.660 241.959 C 160.173 245.173,158.468 246.070,156.310 245.822 C 153.881 245.544,153.459 245.014,153.199 241.914 C 152.778 236.889,154.928 235.211,159.614 236.905 C 162.371 237.902,164.493 237.915,169.800 236.966 C 174.795 236.074,177.521 236.051,180.501 236.879 C 182.701 237.489,191.700 238.000,200.500 238.014 C 209.300 238.028,221.000 238.691,226.500 239.488 C 232.000 240.285,239.650 240.960,243.500 240.989 C 247.350 241.018,253.425 241.736,257.000 242.584 C 267.923 245.177,298.744 247.080,312.462 246.008 C 325.752 244.970,329.098 243.519,330.021 238.394 C 330.366 236.479,330.809 235.923,331.330 236.750 C 331.778 237.461,334.145 238.000,336.820 238.000 C 343.642 238.000,349.921 233.524,357.980 222.915 C 361.566 218.194,365.685 212.795,367.134 210.916 C 372.515 203.937,371.709 200.591,362.655 192.316 C 356.724 186.895,350.934 184.576,340.500 183.441 C 331.312 182.441,327.791 179.352,331.552 175.591 C 332.955 174.188,333.579 174.365,338.043 177.436 C 340.760 179.305,345.124 181.533,347.741 182.387 C 353.932 184.409,364.602 185.437,370.390 184.569 C 374.492 183.954,375.450 183.264,379.487 178.017 C 381.969 174.791,384.000 171.676,384.000 171.095 C 384.000 170.514,385.238 169.773,386.750 169.450 C 388.262 169.126,391.300 168.277,393.500 167.563 C 399.509 165.612,420.201 165.516,423.705 167.423 C 433.452 172.728,443.448 187.975,448.667 205.500 C 449.654 208.814,450.336 217.075,450.690 230.001 C 451.166 247.384,450.992 250.588,449.092 259.501 C 446.270 272.735,444.407 279.477,442.538 283.223 C 441.692 284.920,441.000 286.762,441.000 287.318 C 441.000 289.221,434.180 302.699,429.471 310.102 C 423.063 320.175,398.264 344.699,387.186 351.918 C 379.453 356.958,373.296 359.885,355.500 366.981 C 338.568 373.733,307.524 382.077,291.658 384.140 C 287.171 384.724,281.025 385.572,278.000 386.025 C 274.975 386.478,269.350 387.309,265.500 387.871 C 243.782 391.041,236.641 392.887,235.599 395.603 C 234.697 397.954,236.882 398.191,244.780 396.597 C 255.406 394.454,289.080 389.155,297.000 388.380 C 302.268 387.865,319.497 383.782,344.515 377.119 C 346.174 376.678,349.099 375.603,351.015 374.732 C 352.932 373.860,357.650 372.021,361.500 370.646 C 365.350 369.271,370.860 366.988,373.745 365.573 C 376.630 364.158,379.223 363.000,379.507 363.000 C 380.057 363.000,394.154 353.870,395.000 352.966 C 395.275 352.672,398.425 350.359,402.000 347.825 C 405.575 345.291,411.675 339.907,415.555 335.859 C 423.046 328.045,434.000 314.648,434.000 313.300 C 434.000 312.857,435.575 310.278,437.500 307.571 C 439.425 304.863,441.000 302.210,441.000 301.674 C 441.000 301.138,442.172 298.179,443.605 295.100 C 454.039 272.669,458.397 246.340,456.012 220.135 C 454.620 204.831,452.836 197.848,447.804 188.000 C 441.550 175.763,440.394 174.040,434.718 168.498 C 425.478 159.477,421.373 158.215,410.512 161.060 C 406.247 162.177,402.525 162.858,402.240 162.573 C 401.442 161.775,405.708 160.395,418.121 157.432 L 429.500 154.717 437.831 146.358 C 442.413 141.761,446.518 138.000,446.954 138.000 C 447.984 138.000,617.653 309.682,647.574 341.000 C 653.617 347.325,668.797 362.970,681.307 375.766 C 701.841 396.770,703.945 399.234,702.947 401.099 C 701.468 403.863,500.639 604.709,471.721 632.345 L 448.942 654.114 441.607 647.307 C 405.264 613.581,400.426 609.272,396.807 607.400 C 394.130 606.016,393.097 606.027,386.171 607.516 C 378.345 609.198,372.219 610.665,361.434 613.440 C 349.417 616.531,341.000 614.864,341.000 609.392 C 341.000 606.341,344.878 604.501,355.654 602.439 C 367.967 600.083,375.000 595.341,375.000 589.393 C 375.000 585.656,356.489 570.000,352.071 570.000 C 351.429 570.000,349.013 569.080,346.702 567.955 C 341.221 565.287,330.773 565.052,325.930 567.487 C 316.963 571.996,307.371 579.607,295.146 591.914 C 287.801 599.308,280.617 607.189,279.181 609.429 C 275.637 614.955,269.579 622.521,264.110 628.250 C 259.727 632.841,259.382 633.000,253.823 633.000 C 249.159 633.000,247.874 632.634,247.035 631.066 C 244.790 626.871,245.778 624.435,251.250 620.674 C 267.036 609.820,292.826 586.160,300.490 575.500 C 302.071 573.300,305.533 568.964,308.183 565.864 C 312.628 560.664,314.142 556.824,312.217 555.634 C 311.787 555.368,306.500 556.706,300.467 558.606 C 285.471 563.332,277.409 565.702,271.500 567.124 C 262.990 569.172,256.399 572.595,252.360 577.063 C 250.237 579.412,246.321 583.621,243.659 586.417 L 238.818 591.500 239.433 588.005 C 239.861 585.571,241.787 582.733,245.774 578.660 C 250.597 573.732,253.786 571.710,266.000 565.834 C 288.545 554.988,290.202 554.236,295.065 552.644 C 297.575 551.822,302.075 550.022,305.065 548.643 C 311.289 545.773,323.325 541.000,324.339 541.000 C 325.737 541.000,341.191 532.983,346.743 529.378 C 361.860 519.561,366.000 514.369,366.000 505.228 C 366.000 499.693,365.798 499.223,361.750 495.364 C 353.722 487.708,350.346 486.100,335.500 482.861 C 323.144 480.165,309.562 479.289,307.438 481.051 C 305.953 482.284,305.966 482.502,307.601 483.697 C 308.581 484.414,310.759 485.009,312.441 485.021 C 316.693 485.050,337.647 488.675,342.511 490.223 C 351.380 493.047,361.002 500.710,360.996 504.946 C 360.984 513.653,343.719 527.024,320.239 536.512 C 313.783 539.121,307.061 541.883,305.302 542.650 C 303.544 543.417,297.019 544.978,290.802 546.119 C 275.330 548.958,235.542 549.348,226.954 546.744 C 220.639 544.830,215.745 540.696,218.528 539.628 C 219.427 539.283,223.164 539.008,226.832 539.018 C 232.539 539.034,234.123 539.459,237.826 541.968 C 243.390 545.739,248.101 546.384,265.382 545.743 C 277.838 545.280,280.188 544.908,285.342 542.581 C 293.077 539.089,301.000 531.078,301.000 526.749 C 301.000 514.086,280.918 498.428,252.589 489.004 C 243.810 486.083,233.886 486.061,225.593 488.946 C 222.345 490.076,219.038 491.000,218.245 491.000 C 217.451 491.000,215.384 491.644,213.651 492.432 C 194.419 501.169,183.336 505.054,176.000 505.627 C 170.549 506.053,168.960 505.795,166.153 504.023 C 163.294 502.219,162.901 501.517,163.463 499.206 C 164.413 495.299,169.065 489.843,173.618 487.297 C 177.899 484.903,200.578 480.000,207.369 480.000 C 212.414 480.000,220.360 476.255,220.843 473.650 C 221.993 467.435,216.209 458.424,205.698 450.057 C 195.909 442.265,184.937 439.096,167.500 439.025 C 154.603 438.973,140.277 440.384,127.000 443.015 C 121.775 444.051,113.000 445.621,107.500 446.505 C 102.000 447.389,91.828 449.436,84.895 451.053 C 59.301 457.024,49.978 458.074,45.072 455.537 C 41.925 453.910,41.000 452.199,41.000 448.007 C 41.000 444.874,45.409 440.437,49.559 439.396 C 52.476 438.664,60.547 440.383,68.000 443.324 C 72.855 445.239,75.262 445.478,88.529 445.355 C 100.501 445.245,105.077 444.786,111.029 443.102 C 125.381 439.039,134.426 435.817,146.488 430.469 C 149.782 429.009,154.507 427.133,156.988 426.300 C 159.470 425.467,163.750 423.790,166.500 422.574 C 171.974 420.154,180.354 417.068,183.500 416.313 C 184.600 416.049,186.400 415.469,187.500 415.023 C 188.600 414.577,193.545 412.952,198.489 411.411 C 208.699 408.228,212.630 406.495,215.507 403.911 C 216.611 402.919,220.914 400.558,225.070 398.664 C 232.990 395.055,236.000 391.977,236.000 387.486 C 236.000 381.124,230.662 376.360,212.500 366.513 C 208.650 364.426,198.525 358.817,190.000 354.048 C 167.747 341.602,166.523 341.200,147.159 339.992 C 131.297 339.003,128.384 338.385,124.787 335.250 C 122.299 333.082,119.798 334.405,120.183 337.687 C 120.426 339.758,121.228 340.572,123.633 341.190 C 125.502 341.671,126.977 342.804,127.289 343.998 C 127.628 345.293,130.229 347.086,134.656 349.077 C 140.580 351.741,142.978 352.220,152.500 352.641 C 164.983 353.194,172.363 354.504,176.000 356.811 C 177.375 357.683,180.975 359.709,184.000 361.313 C 189.106 364.020,205.955 373.557,210.479 376.300 C 227.151 386.409,230.873 389.465,227.733 390.470 C 217.422 393.771,212.956 395.829,209.954 398.661 C 207.831 400.665,203.619 402.971,199.454 404.410 C 195.629 405.731,188.900 408.041,184.500 409.542 C 180.100 411.043,175.150 412.849,173.500 413.556 C 171.850 414.262,166.450 416.279,161.500 418.037 C 147.568 422.986,144.827 424.022,142.814 425.100 C 140.674 426.245,125.008 431.955,114.122 435.558 C 107.557 437.731,105.025 437.999,91.122 437.988 C 79.897 437.980,73.952 437.531,70.000 436.395 C 60.494 433.663,52.223 432.786,46.842 433.940 C 32.953 436.919,29.580 452.848,40.658 463.140 C 44.729 466.921,51.354 470.000,55.422 470.000 C 58.884 470.000,74.343 467.147,85.000 464.541 C 99.580 460.976,103.914 460.066,109.000 459.498 C 112.025 459.160,118.325 458.052,123.000 457.035 C 141.347 453.044,154.312 451.557,170.500 451.586 C 191.887 451.625,197.043 453.227,207.198 462.987 C 211.074 466.713,214.055 470.335,213.822 471.035 C 213.353 472.440,199.651 475.485,189.194 476.508 C 172.701 478.121,163.748 483.197,158.035 494.173 C 154.774 500.440,154.657 500.995,156.035 503.654 C 156.841 505.207,159.750 508.806,162.500 511.651 C 167.034 516.341,168.028 516.888,173.165 517.516 C 180.293 518.388,191.594 516.568,199.478 513.277 L 205.457 510.782 209.478 515.408 C 214.367 521.030,218.914 522.631,225.234 520.954 C 230.816 519.474,233.917 515.733,233.964 510.424 C 234.000 506.292,232.201 503.711,227.566 501.244 C 226.065 500.445,227.802 500.052,235.327 499.487 C 245.405 498.732,251.421 499.660,265.098 504.082 C 275.141 507.329,294.000 521.210,294.000 525.355 C 294.000 533.449,278.776 540.000,259.967 540.000 C 248.099 540.000,245.000 539.012,242.539 534.442 C 241.498 532.510,238.684 529.120,236.286 526.909 C 232.879 523.769,231.440 523.042,229.712 523.589 C 225.858 524.808,222.996 527.167,222.376 529.636 C 221.927 531.429,220.721 532.293,217.559 533.089 C 214.617 533.830,212.827 535.022,211.640 537.033 C 210.070 539.690,210.061 540.210,211.519 543.707 C 213.506 548.471,218.183 553.390,224.000 556.835 C 228.378 559.428,228.987 559.506,246.500 559.723 C 256.400 559.845,265.175 559.965,266.000 559.988 C 269.075 560.075,264.624 561.969,261.307 561.985 C 254.102 562.019,234.620 577.177,233.396 583.701 C 232.333 589.366,233.859 595.770,237.171 599.542 C 239.719 602.444,240.875 603.000,244.364 603.000 C 247.899 603.000,249.176 602.365,252.907 598.750 C 255.319 596.413,258.422 592.797,259.802 590.716 C 262.782 586.221,269.479 581.468,274.150 580.532 C 279.045 579.550,290.418 575.818,291.000 575.001 C 291.572 574.199,295.571 572.000,296.460 572.000 C 296.785 572.000,292.652 576.195,287.275 581.321 C 269.468 598.301,256.981 609.136,250.651 613.098 C 248.368 614.528,244.761 617.623,242.636 619.978 C 239.205 623.779,238.830 624.694,239.292 628.137 C 240.023 633.593,243.015 638.887,247.349 642.394 C 250.391 644.857,251.993 645.401,256.278 645.426 C 265.356 645.480,268.368 644.350,274.281 638.668 C 277.304 635.763,281.409 630.836,283.403 627.719 C 285.397 624.602,287.827 621.252,288.802 620.276 C 289.778 619.299,291.882 616.700,293.479 614.500 C 303.459 600.751,318.836 587.146,331.350 580.994 C 338.198 577.628,338.201 577.627,345.275 578.840 C 358.145 581.047,370.418 590.726,364.250 593.803 C 363.288 594.283,357.813 595.513,352.084 596.536 C 342.548 598.239,341.333 598.715,337.699 602.172 C 334.058 605.635,333.774 606.280,334.269 609.967 C 334.938 614.955,339.271 621.961,343.461 624.833 C 347.666 627.714,354.509 627.699,360.488 624.794 C 362.986 623.580,364.860 622.118,364.654 621.544 C 364.272 620.479,363.741 620.495,353.814 621.866 C 348.572 622.590,344.996 621.914,345.003 620.200 C 345.004 619.815,349.166 619.494,354.253 619.486 C 360.305 619.477,365.055 618.905,368.000 617.830 C 373.396 615.861,384.589 613.316,391.537 612.478 C 395.817 611.962,396.854 612.181,398.442 613.936 C 400.568 616.285,400.262 616.430,396.335 614.937 C 394.329 614.175,391.699 614.205,387.020 615.046 C 376.315 616.970,366.825 619.973,367.261 621.299 C 367.868 623.144,376.138 623.278,382.803 621.551 C 391.421 619.318,397.525 619.534,401.346 622.207 C 403.939 624.021,418.166 636.854,446.161 662.629 C 451.261 667.325,454.335 667.103,461.792 661.497 C 468.396 656.533,650.414 475.658,682.901 441.777 C 712.188 411.232,712.550 410.836,714.440 407.147 C 717.490 401.195,719.687 403.918,673.568 356.500 C 656.985 339.450,633.037 314.700,620.349 301.500 C 607.662 288.300,565.606 245.722,526.891 206.882 C 476.853 156.683,455.090 135.503,451.624 133.632 C 445.855 130.518,446.174 130.550,442.964 132.757 M274.280 148.564 C 270.680 150.416,266.000 157.586,266.000 161.249 C 266.000 165.577,271.232 174.302,275.673 177.379 C 279.364 179.937,280.923 180.324,289.173 180.734 C 301.349 181.338,303.430 180.488,306.573 173.622 C 309.357 167.540,309.202 166.608,303.986 158.132 C 299.599 151.002,294.221 147.990,284.785 147.379 C 279.250 147.021,276.727 147.305,274.280 148.564 M292.371 156.029 C 301.469 166.842,291.140 175.309,278.422 167.464 C 272.715 163.945,271.882 161.244,274.965 156.250 C 276.891 153.129,277.225 153.000,283.396 153.000 C 289.322 153.000,290.020 153.236,292.371 156.029 M340.500 159.595 C 343.250 160.355,347.300 160.990,349.500 161.006 C 351.700 161.022,357.775 161.737,363.000 162.595 C 368.225 163.452,374.940 164.406,377.921 164.715 C 382.724 165.212,383.136 165.427,381.533 166.599 C 380.425 167.409,379.099 167.603,378.112 167.098 C 377.225 166.645,370.875 165.995,364.000 165.655 C 352.067 165.064,346.365 163.898,334.000 159.521 C 331.525 158.645,328.909 157.723,328.187 157.471 C 327.464 157.220,327.151 156.565,327.490 156.016 C 327.880 155.384,329.465 155.605,331.803 156.616 C 333.837 157.495,337.750 158.836,340.500 159.595 M302.382 168.838 C 302.053 170.486,300.504 173.059,298.940 174.557 C 296.297 177.090,295.645 177.245,289.685 176.767 C 286.158 176.484,282.424 175.765,281.387 175.169 C 279.427 174.045,279.442 174.045,290.640 175.460 C 293.770 175.855,294.769 175.431,297.764 172.436 C 300.951 169.249,301.196 168.592,300.636 164.726 C 300.034 160.570,300.048 160.544,301.503 163.171 C 302.404 164.800,302.748 167.012,302.382 168.838 M379.716 170.382 C 379.899 170.565,379.328 171.313,378.447 172.044 C 376.007 174.069,357.614 173.363,353.151 171.073 C 349.763 169.335,349.886 169.320,364.555 169.683 C 372.710 169.885,379.533 170.199,379.716 170.382 M310.035 171.934 C 308.486 174.829,308.783 176.985,310.750 177.118 C 313.311 177.292,313.284 177.295,316.000 176.482 C 318.462 175.746,318.472 175.766,316.662 177.793 C 313.313 181.544,316.749 186.113,320.548 182.960 C 322.211 181.580,322.532 176.000,320.948 176.000 C 320.369 176.000,319.425 174.650,318.850 173.000 C 317.967 170.468,317.279 170.000,314.437 170.000 C 312.132 170.000,310.744 170.610,310.035 171.934 M264.842 187.656 C 267.621 190.824,267.225 195.067,263.810 198.702 C 261.089 201.599,257.968 201.613,252.960 198.750 C 248.656 196.290,245.945 191.928,246.766 188.786 C 248.144 183.518,260.534 182.743,264.842 187.656 M416.639 185.694 C 415.189 187.144,416.179 189.757,418.960 191.812 C 422.670 194.555,423.000 194.542,423.000 191.655 C 423.000 188.715,418.157 184.176,416.639 185.694 M346.675 189.011 C 351.019 189.733,358.000 192.388,358.000 193.318 C 358.000 193.465,352.938 192.560,346.750 191.307 C 340.563 190.053,335.387 189.022,335.250 189.014 C 335.113 189.006,335.000 188.544,335.000 187.986 C 335.000 187.387,336.332 187.213,338.250 187.561 C 340.038 187.886,343.829 188.538,346.675 189.011 M248.688 188.646 C 247.383 189.950,248.006 191.000,250.083 191.000 C 251.247 191.000,251.992 190.476,251.771 189.813 C 251.284 188.351,249.614 187.719,248.688 188.646 M272.985 196.097 C 273.001 199.812,271.372 202.329,267.027 205.306 C 264.320 207.161,260.000 207.588,260.000 206.000 C 260.000 205.450,261.160 205.000,262.577 205.000 C 264.092 205.000,266.359 203.795,268.077 202.077 C 270.493 199.660,271.003 198.317,271.015 194.327 C 271.026 190.842,271.300 189.917,272.000 191.000 C 272.533 191.825,272.976 194.119,272.985 196.097 M423.345 196.543 C 423.019 197.392,423.014 198.347,423.333 198.667 C 424.342 199.676,427.000 198.128,427.000 196.531 C 427.000 194.535,424.112 194.545,423.345 196.543 M427.169 206.151 C 427.353 207.445,428.314 208.635,429.331 208.829 C 430.749 209.099,431.088 208.652,430.831 206.849 C 430.647 205.555,429.686 204.365,428.669 204.171 C 427.251 203.901,426.912 204.348,427.169 206.151 M373.446 206.087 C 372.479 207.653,373.979 208.749,378.135 209.512 C 382.175 210.254,383.944 208.842,381.964 206.456 C 380.556 204.760,374.430 204.495,373.446 206.087 M353.569 207.112 C 354.743 209.011,351.702 210.085,347.000 209.431 C 341.573 208.676,340.341 208.032,342.143 206.890 C 344.117 205.640,352.763 205.807,353.569 207.112 M361.629 209.500 C 361.791 210.050,360.920 211.726,359.694 213.225 C 357.799 215.541,356.607 215.986,351.747 216.189 C 347.984 216.346,345.596 215.969,344.764 215.085 C 343.712 213.968,344.381 213.840,348.754 214.325 C 353.275 214.825,354.288 214.608,356.004 212.765 C 357.102 211.587,358.000 210.000,358.000 209.238 C 358.000 207.697,361.165 207.925,361.629 209.500 M264.861 210.954 C 272.210 211.468,278.510 212.200,278.861 212.581 C 279.212 212.962,276.037 213.023,271.805 212.718 C 266.007 212.299,263.832 212.497,262.984 213.519 C 262.098 214.587,262.564 215.244,265.179 216.611 C 269.490 218.863,276.093 218.661,282.986 216.066 C 290.824 213.114,294.156 213.487,301.000 218.080 C 302.375 219.003,305.975 220.070,309.000 220.451 C 321.017 221.966,321.337 223.638,309.516 223.148 C 301.506 222.816,300.851 222.947,297.821 225.497 C 295.212 227.693,293.951 228.091,291.088 227.627 C 289.151 227.313,286.415 226.204,285.008 225.164 C 283.600 224.123,278.636 222.528,273.975 221.618 C 260.095 218.909,252.000 216.835,252.000 215.987 C 252.000 215.549,253.800 215.432,256.000 215.727 C 258.200 216.022,260.000 215.844,260.000 215.332 C 260.000 213.274,257.369 212.000,253.121 212.000 C 250.658 212.000,247.224 211.487,245.490 210.860 C 241.668 209.478,233.689 211.693,233.188 214.275 C 232.874 215.893,237.135 218.728,240.697 219.271 C 241.689 219.423,242.500 219.986,242.500 220.523 C 242.500 221.061,242.050 221.306,241.500 221.069 C 240.950 220.832,236.675 220.358,232.000 220.016 C 227.325 219.674,222.541 218.868,221.369 218.225 C 217.555 216.135,209.923 213.870,207.765 214.189 C 204.542 214.665,204.486 216.846,207.679 217.532 C 210.396 218.115,219.000 221.837,219.000 222.429 C 219.000 222.588,215.738 221.835,211.750 220.755 C 204.459 218.781,200.000 215.907,200.000 213.182 C 200.000 211.933,201.384 211.844,209.250 212.588 C 221.989 213.793,230.842 213.446,232.856 211.663 C 235.301 209.498,237.803 209.066,245.000 209.566 C 248.575 209.815,257.512 210.439,264.861 210.954 M246.000 214.500 C 243.127 216.142,239.383 216.429,238.544 215.071 C 237.929 214.077,240.646 213.335,245.500 213.172 L 248.500 213.071 246.000 214.500 M249.917 218.624 C 250.146 218.831,250.054 219.279,249.713 219.620 C 248.710 220.624,243.859 219.038,244.543 217.930 C 245.084 217.056,248.695 217.522,249.917 218.624 M416.028 219.167 C 416.043 220.450,417.382 222.802,419.004 224.393 C 421.612 226.952,422.030 227.085,422.622 225.542 C 423.000 224.557,422.753 223.466,422.055 223.034 C 421.375 222.614,420.297 221.232,419.660 219.964 C 418.040 216.742,415.994 216.293,416.028 219.167 M232.625 224.000 C 235.659 224.000,238.000 224.450,238.000 225.034 C 238.000 226.572,225.706 225.974,222.887 224.298 C 220.556 222.912,220.578 222.892,223.875 223.439 C 225.731 223.748,229.669 224.000,232.625 224.000 M272.500 225.569 C 274.700 225.957,279.075 227.563,282.221 229.137 C 285.368 230.712,289.306 232.000,290.971 232.000 C 292.637 232.000,294.000 232.427,294.000 232.948 C 294.000 234.523,299.549 232.109,302.052 229.445 C 304.167 227.193,305.080 227.000,313.615 227.000 C 318.712 227.000,323.140 227.417,323.454 227.926 C 324.236 229.191,313.844 230.391,308.924 229.604 C 305.553 229.065,304.593 229.331,302.718 231.328 C 299.116 235.162,296.146 235.277,285.479 231.993 C 280.130 230.347,275.247 228.994,274.627 228.987 C 274.007 228.980,271.250 227.851,268.500 226.478 C 265.596 225.028,264.548 224.166,266.000 224.422 C 267.375 224.665,270.300 225.181,272.500 225.569 M329.000 233.131 C 329.000 233.618,328.129 233.473,327.065 232.808 C 326.000 232.144,325.365 231.218,325.654 230.751 C 326.243 229.798,329.000 231.758,329.000 233.131 M409.177 235.553 C 409.629 237.725,411.404 237.858,411.810 235.750 C 412.020 234.655,411.530 234.000,410.500 234.000 C 409.539 234.000,408.988 234.647,409.177 235.553 M428.525 236.959 C 427.517 238.590,430.977 247.504,433.143 248.857 C 436.035 250.663,436.509 249.656,435.074 244.756 C 433.016 237.729,430.155 234.322,428.525 236.959 M381.000 238.096 C 381.000 238.698,381.944 240.517,383.098 242.137 C 384.750 244.458,385.487 244.841,386.571 243.941 C 387.736 242.974,387.717 242.353,386.448 239.899 C 384.994 237.087,381.000 235.765,381.000 238.096 M155.000 241.878 C 155.000 243.189,157.585 245.082,158.342 244.325 C 159.711 242.956,158.922 241.000,157.000 241.000 C 155.900 241.000,155.000 241.395,155.000 241.878 M187.822 244.008 C 191.850 244.554,201.271 245.000,208.758 245.000 C 221.359 245.000,222.543 245.162,224.686 247.174 C 227.361 249.688,227.886 252.111,225.235 249.713 C 224.265 248.834,221.452 247.651,218.985 247.082 C 213.469 245.811,182.663 245.645,183.432 246.890 C 184.129 248.018,177.817 249.251,175.634 248.413 C 174.735 248.068,174.000 247.186,174.000 246.452 C 174.000 243.344,171.536 243.934,168.114 247.861 C 165.175 251.234,163.773 252.055,160.609 252.254 C 158.111 252.412,156.552 252.029,156.254 251.185 C 155.901 250.184,156.632 250.028,159.321 250.532 C 162.254 251.083,163.162 250.810,164.676 248.923 C 169.804 242.533,170.556 242.097,175.645 242.568 C 178.315 242.815,183.795 243.463,187.822 244.008 M238.338 246.500 C 242.649 247.325,247.886 248.000,249.977 248.000 C 252.290 248.000,254.703 248.770,256.139 249.967 C 259.005 252.354,258.137 252.422,249.099 250.521 C 245.231 249.707,239.464 248.920,236.283 248.771 C 230.759 248.512,228.555 247.528,229.625 245.798 C 230.228 244.823,229.094 244.731,238.338 246.500 M306.083 249.400 C 305.331 250.306,305.036 251.370,305.429 251.762 C 306.469 252.803,335.003 253.381,334.985 252.361 C 334.929 249.240,332.915 248.670,320.318 248.215 C 309.216 247.815,307.264 247.977,306.083 249.400 M339.173 251.057 C 337.197 253.558,337.079 254.093,338.393 254.597 C 339.245 254.924,341.032 254.333,342.366 253.284 C 344.207 251.836,344.563 250.971,343.846 249.688 C 342.571 247.410,341.898 247.607,339.173 251.057 M271.297 254.469 C 269.650 256.731,268.000 257.741,268.000 256.486 C 268.000 255.119,270.633 252.000,271.787 252.000 C 272.730 252.000,272.593 252.688,271.297 254.469 M290.500 256.187 C 293.800 257.761,295.600 258.781,294.500 258.455 C 293.400 258.129,289.575 257.211,286.000 256.414 C 282.425 255.617,278.469 254.735,277.209 254.453 C 275.949 254.172,275.189 253.504,275.519 252.969 C 276.465 251.439,283.885 253.033,290.500 256.187 M226.362 254.500 C 226.678 255.325,226.501 256.000,225.969 256.000 C 225.436 256.000,225.000 255.325,225.000 254.500 C 225.000 253.675,225.177 253.000,225.393 253.000 C 225.609 253.000,226.045 253.675,226.362 254.500 M265.000 254.500 C 265.000 254.775,264.775 255.000,264.500 255.000 C 264.225 255.000,264.000 254.775,264.000 254.500 C 264.000 254.225,264.225 254.000,264.500 254.000 C 264.775 254.000,265.000 254.225,265.000 254.500 M346.676 256.402 C 345.965 258.254,346.825 259.000,349.667 259.000 C 352.242 259.000,352.633 258.033,350.800 256.200 C 349.192 254.592,347.336 254.683,346.676 256.402 M176.006 260.840 C 173.307 263.540,173.053 264.230,174.065 266.122 C 175.558 268.912,183.857 277.000,185.227 277.000 C 185.801 277.000,187.222 275.977,188.385 274.726 C 189.548 273.476,191.569 271.706,192.875 270.794 C 194.710 269.514,195.107 268.562,194.618 266.615 C 193.406 261.786,189.921 258.988,184.306 258.337 C 179.458 257.775,178.904 257.942,176.006 260.840 M298.000 259.500 C 298.000 259.775,297.775 260.000,297.500 260.000 C 297.225 260.000,297.000 259.775,297.000 259.500 C 297.000 259.225,297.225 259.000,297.500 259.000 C 297.775 259.000,298.000 259.225,298.000 259.500 M353.667 259.667 C 352.629 260.704,352.883 264.000,354.000 264.000 C 354.550 264.000,355.000 262.875,355.000 261.500 C 355.000 258.882,354.769 258.564,353.667 259.667 M208.965 261.934 C 210.321 264.468,210.273 265.245,208.621 267.503 C 207.307 269.301,207.120 269.309,204.621 267.671 C 201.846 265.853,201.008 261.567,203.250 260.662 C 205.872 259.604,207.967 260.071,208.965 261.934 M186.500 264.000 C 186.160 264.550,184.334 265.000,182.441 265.000 C 180.548 265.000,179.000 264.550,179.000 264.000 C 179.000 263.450,180.827 263.000,183.059 263.000 C 185.510 263.000,186.873 263.396,186.500 264.000 M216.902 267.149 C 218.322 271.221,218.409 271.000,215.383 271.000 C 213.158 271.000,212.857 270.664,213.370 268.750 C 213.701 267.512,213.979 265.938,213.986 265.250 C 214.013 262.852,215.813 264.024,216.902 267.149 M189.000 267.259 C 189.000 268.683,185.097 271.430,184.261 270.594 C 183.962 270.295,184.793 269.154,186.108 268.058 C 188.974 265.672,189.000 265.665,189.000 267.259 M359.000 266.800 C 359.000 267.240,359.540 268.140,360.200 268.800 C 361.963 270.563,363.000 270.267,363.000 268.000 C 363.000 266.667,362.333 266.000,361.000 266.000 C 359.900 266.000,359.000 266.360,359.000 266.800 M365.532 275.250 C 365.912 277.038,366.848 279.210,367.611 280.079 C 368.375 280.947,369.000 282.185,369.000 282.829 C 369.000 284.464,370.515 284.289,372.016 282.481 C 373.043 281.243,372.973 280.628,371.638 279.153 C 370.737 278.157,370.000 276.885,370.000 276.326 C 370.000 275.187,366.752 272.000,365.592 272.000 C 365.179 272.000,365.152 273.462,365.532 275.250 M208.443 275.250 C 208.063 276.488,207.648 277.622,207.521 277.771 C 207.040 278.338,194.855 278.188,194.275 277.608 C 193.940 277.274,195.730 277.000,198.252 277.000 C 203.781 277.000,206.000 276.253,206.000 274.393 C 206.000 273.627,206.705 273.000,207.567 273.000 C 208.731 273.000,208.957 273.580,208.443 275.250 M260.225 282.647 C 264.473 283.143,268.523 284.153,269.225 284.891 C 270.284 286.006,269.908 286.112,267.000 285.520 C 265.075 285.128,253.600 284.694,241.500 284.556 C 229.400 284.418,218.600 284.022,217.500 283.676 C 216.400 283.330,212.125 283.426,208.000 283.888 C 198.945 284.904,196.403 284.024,204.022 282.512 C 210.452 281.236,248.936 281.328,260.225 282.647 M99.750 287.080 C 96.954 288.708,97.677 292.637,101.564 296.939 C 105.898 301.737,111.686 304.596,118.975 305.540 C 123.460 306.121,125.086 306.902,127.975 309.863 C 133.882 315.917,139.385 319.980,141.691 319.990 C 144.227 320.002,144.522 319.631,145.459 315.263 C 146.060 312.462,145.727 311.638,142.985 309.134 C 138.363 304.912,135.206 303.394,133.855 304.745 C 133.049 305.551,133.926 306.935,137.100 309.866 C 139.493 312.076,141.110 314.224,140.693 314.640 C 140.277 315.057,137.813 313.116,135.218 310.328 C 129.199 303.859,126.667 302.345,120.500 301.526 C 117.750 301.161,114.375 300.193,113.000 299.376 L 110.500 297.890 113.500 298.412 C 115.150 298.699,120.775 299.434,126.000 300.046 C 131.225 300.657,136.175 301.721,137.000 302.409 C 140.358 305.213,148.011 309.000,150.318 309.000 C 151.672 309.000,157.154 308.100,162.500 307.000 C 173.777 304.680,173.000 304.765,173.000 305.842 C 173.000 307.204,165.682 309.000,160.134 309.000 C 155.187 309.000,155.000 309.101,155.000 311.779 C 155.000 313.862,156.573 316.116,161.277 320.779 L 167.554 327.000 179.720 327.000 C 191.159 327.000,191.980 326.867,193.443 324.777 C 195.802 321.410,195.332 317.903,191.790 312.446 C 190.025 309.726,187.791 305.799,186.826 303.719 C 184.737 299.221,176.836 291.288,171.697 288.530 C 168.107 286.603,167.921 286.599,163.263 288.385 C 160.643 289.390,156.700 290.645,154.500 291.174 C 148.790 292.547,133.190 291.253,121.364 288.424 C 110.699 285.874,102.678 285.375,99.750 287.080 M120.000 294.090 C 122.214 294.824,132.255 295.296,147.327 295.375 L 171.154 295.500 174.566 299.223 C 176.602 301.446,178.559 302.723,179.421 302.392 C 180.341 302.039,181.442 302.955,182.458 304.919 C 183.879 307.667,183.040 309.491,181.500 307.000 C 181.160 306.450,179.994 306.000,178.910 306.000 C 177.825 306.000,176.659 305.212,176.320 304.250 C 175.980 303.288,174.791 301.488,173.677 300.250 C 171.755 298.116,170.903 297.998,157.076 297.966 C 140.022 297.927,125.230 296.726,112.565 294.354 C 102.451 292.459,102.572 292.501,103.385 291.186 C 103.982 290.221,113.184 291.829,120.000 294.090 M298.000 290.500 C 298.000 290.775,298.225 291.000,298.500 291.000 C 298.775 291.000,299.000 290.775,299.000 290.500 C 299.000 290.225,298.775 290.000,298.500 290.000 C 298.225 290.000,298.000 290.225,298.000 290.500 M166.500 302.017 C 164.000 303.070,145.284 303.269,144.657 302.250 C 144.403 301.837,149.664 301.427,156.348 301.338 C 163.694 301.240,167.709 301.508,166.500 302.017 M198.111 307.183 C 197.252 309.458,198.288 313.000,199.813 313.000 C 201.920 313.000,205.086 309.610,204.807 307.653 C 204.346 304.423,199.287 304.067,198.111 307.183 M459.000 309.333 C 459.000 311.717,459.296 313.963,459.658 314.325 C 461.062 315.729,463.000 312.570,463.000 308.878 C 463.000 305.667,462.656 305.000,461.000 305.000 C 459.308 305.000,459.000 305.667,459.000 309.333 M204.250 311.603 C 201.278 314.994,201.387 317.763,204.548 319.204 C 206.828 320.243,207.428 320.033,210.250 317.212 L 213.403 314.058 211.027 311.529 C 208.062 308.373,207.072 308.384,204.250 311.603 M180.906 311.894 C 184.088 314.340,183.116 316.596,178.305 317.932 C 172.819 319.456,170.540 319.254,168.565 317.072 C 166.883 315.213,166.959 315.052,170.660 312.630 C 175.276 309.610,177.707 309.435,180.906 311.894 M264.192 313.648 C 267.115 315.271,264.443 315.499,260.422 313.971 C 258.412 313.206,256.361 313.335,252.453 314.471 C 246.612 316.169,240.243 316.440,238.098 315.082 C 237.163 314.490,238.327 314.160,241.598 314.091 C 244.294 314.033,248.075 313.578,250.000 313.079 C 254.787 311.837,261.408 312.103,264.192 313.648 M162.667 314.667 C 162.300 315.033,161.700 315.033,161.333 314.667 C 160.967 314.300,161.267 314.000,162.000 314.000 C 162.733 314.000,163.033 314.300,162.667 314.667 M102.000 318.918 C 102.000 321.153,102.789 322.324,105.368 323.918 C 109.858 326.693,110.362 326.562,109.613 322.816 C 108.318 316.339,102.000 313.105,102.000 318.918 M188.557 321.582 C 187.491 322.362,184.791 322.970,182.559 322.933 L 178.500 322.865 183.266 321.583 C 185.888 320.878,188.325 320.008,188.683 319.650 C 189.041 319.293,189.595 319.262,189.915 319.582 C 190.235 319.902,189.624 320.802,188.557 321.582 M128.500 323.038 C 130.422 323.770,130.427 323.829,128.624 324.555 C 127.592 324.971,125.310 324.791,123.553 324.155 C 121.796 323.520,119.602 323.000,118.679 323.000 C 117.756 323.000,117.000 322.522,117.000 321.939 C 117.000 320.834,124.623 321.563,128.500 323.038 M224.560 324.111 C 220.942 328.411,221.636 332.214,226.959 337.250 C 230.332 340.441,231.593 341.000,235.426 341.000 C 240.118 341.000,242.013 339.359,241.990 335.316 C 241.971 332.106,237.562 324.557,234.992 323.334 C 229.140 320.550,227.451 320.675,224.560 324.111 M244.963 322.381 C 240.252 323.903,240.106 326.541,244.417 332.188 C 251.531 341.504,261.228 339.876,259.282 329.693 C 258.214 324.110,251.004 320.428,244.963 322.381 M249.000 326.681 C 249.000 327.953,248.722 328.014,247.511 327.009 C 246.692 326.329,246.273 325.367,246.580 324.870 C 247.369 323.594,249.000 324.815,249.000 326.681 M234.000 328.500 C 235.072 329.792,234.673 330.000,231.122 330.000 C 227.260 330.000,226.110 329.223,227.667 327.667 C 228.871 326.462,232.730 326.970,234.000 328.500 M484.667 328.667 C 484.300 329.033,484.000 330.272,484.000 331.420 C 484.000 332.567,482.538 335.565,480.750 338.080 C 475.683 345.210,472.406 352.806,473.796 354.196 C 475.385 355.785,478.755 352.646,480.716 347.750 C 481.541 345.688,482.537 344.000,482.928 344.000 C 483.319 344.000,484.259 341.721,485.017 338.937 C 485.776 336.152,486.757 333.650,487.198 333.378 C 488.545 332.545,488.096 328.000,486.667 328.000 C 485.933 328.000,485.033 328.300,484.667 328.667 M253.616 332.813 C 252.218 334.211,252.000 334.225,252.000 332.914 C 252.000 330.860,254.340 328.520,254.854 330.061 C 255.062 330.685,254.505 331.924,253.616 332.813 M109.163 330.864 C 107.419 331.988,108.058 336.396,110.019 336.769 C 110.855 336.928,112.430 336.396,113.519 335.587 C 115.108 334.408,115.281 333.759,114.393 332.309 C 113.105 330.205,111.061 329.641,109.163 330.864 M126.000 332.500 C 126.000 332.775,126.225 333.000,126.500 333.000 C 126.775 333.000,127.000 332.775,127.000 332.500 C 127.000 332.225,126.775 332.000,126.500 332.000 C 126.225 332.000,126.000 332.225,126.000 332.500 M237.000 334.383 C 237.000 335.232,231.915 335.671,231.417 334.866 C 231.123 334.390,232.259 334.000,233.941 334.000 C 235.623 334.000,237.000 334.173,237.000 334.383 M126.000 335.500 C 126.000 335.775,126.225 336.000,126.500 336.000 C 126.775 336.000,127.000 335.775,127.000 335.500 C 127.000 335.225,126.775 335.000,126.500 335.000 C 126.225 335.000,126.000 335.225,126.000 335.500 M112.938 338.575 C 111.768 339.984,111.844 340.413,113.479 341.608 C 115.564 343.133,119.000 343.485,119.000 342.174 C 119.000 341.720,117.943 340.355,116.650 339.141 C 114.493 337.115,114.188 337.068,112.938 338.575 M151.000 345.067 C 161.571 345.948,172.942 348.392,171.796 349.537 C 171.617 349.716,167.202 349.222,161.985 348.438 C 156.768 347.655,150.290 347.011,147.588 347.007 C 142.532 347.000,132.000 344.216,132.000 342.887 C 132.000 342.476,133.463 342.564,135.250 343.083 C 137.037 343.602,144.125 344.495,151.000 345.067 M574.478 354.250 C 573.589 355.488,567.872 364.150,561.773 373.500 C 555.673 382.850,550.416 390.725,550.089 391.000 C 549.762 391.275,548.157 393.525,546.523 396.000 C 544.889 398.475,535.440 408.756,525.526 418.848 C 509.966 434.685,504.353 439.572,484.500 454.568 C 461.897 471.642,456.582 476.172,446.393 487.048 C 441.815 491.936,434.000 502.948,434.000 504.513 C 434.000 504.847,431.231 510.723,427.847 517.571 C 419.283 534.900,411.672 542.394,397.941 547.020 C 389.646 549.814,384.733 552.228,384.239 553.750 C 383.593 555.740,390.776 555.274,396.954 552.926 C 415.647 545.821,423.265 539.084,431.923 522.000 C 435.129 515.675,438.086 509.414,438.495 508.086 C 441.140 499.500,459.835 479.676,477.883 466.320 C 484.273 461.593,491.975 455.855,495.000 453.571 C 498.025 451.287,501.625 448.701,503.000 447.825 C 512.030 442.071,539.748 413.598,551.202 398.310 C 562.946 382.635,579.000 356.541,579.000 353.126 C 579.000 351.191,576.169 351.895,574.478 354.250 M124.750 356.689 C 122.725 357.219,122.421 360.293,124.250 361.753 C 125.797 362.989,140.433 363.968,142.086 362.947 C 144.589 361.400,141.948 359.230,135.631 357.643 C 128.986 355.974,127.864 355.876,124.750 356.689 M470.074 361.250 C 459.939 378.621,434.959 405.710,423.831 411.398 C 421.999 412.334,418.475 414.398,416.000 415.984 C 409.146 420.375,397.409 425.893,390.079 428.170 C 386.461 429.294,381.250 431.015,378.500 431.993 C 369.405 435.230,351.136 439.511,316.500 446.521 C 312.100 447.411,305.125 449.039,301.000 450.139 C 296.875 451.238,290.800 452.813,287.500 453.638 C 284.200 454.462,278.125 456.051,274.000 457.167 C 269.875 458.283,264.250 459.772,261.500 460.475 C 242.820 465.252,238.649 466.360,231.543 468.427 C 227.167 469.701,223.430 471.209,223.240 471.780 C 222.696 473.411,228.055 474.134,233.000 473.098 C 243.216 470.958,255.956 467.950,263.000 466.016 C 267.125 464.884,272.300 463.562,274.500 463.079 C 276.700 462.596,282.100 461.226,286.500 460.034 C 306.791 454.538,328.951 449.109,333.500 448.520 C 340.152 447.659,351.775 445.273,361.000 442.876 C 378.169 438.415,380.749 437.683,386.000 435.780 C 400.988 430.349,417.088 422.791,426.658 416.693 C 434.951 411.408,450.717 397.032,458.124 388.000 C 462.408 382.775,465.933 378.145,465.957 377.711 C 465.981 377.276,467.575 374.582,469.500 371.724 C 471.425 368.865,473.000 366.013,473.000 365.386 C 473.000 364.758,473.675 363.685,474.500 363.000 C 475.325 362.315,476.000 360.910,476.000 359.878 C 476.000 356.729,472.199 357.609,470.074 361.250 M109.000 361.175 C 104.220 362.534,102.000 364.764,102.000 368.205 C 102.000 371.245,104.182 376.292,106.776 379.250 C 109.577 382.445,121.575 381.153,125.493 377.234 C 129.884 372.843,128.603 367.898,121.798 362.969 C 117.527 359.875,114.880 359.504,109.000 361.175 M153.500 363.536 C 148.502 366.075,147.000 368.642,147.000 374.643 C 147.000 383.918,150.420 389.119,158.595 392.278 C 161.438 393.376,163.756 393.619,166.178 393.073 C 171.309 391.915,172.722 390.885,176.543 385.510 C 183.277 376.039,180.458 368.329,168.712 364.089 C 161.855 361.614,157.590 361.459,153.500 363.536 M623.200 363.200 C 621.631 364.769,621.661 367.004,623.250 366.985 C 625.541 366.957,627.299 365.221,626.677 363.601 C 625.945 361.693,624.835 361.565,623.200 363.200 M131.425 365.791 C 129.777 366.892,130.426 372.452,132.244 372.805 C 133.107 372.973,134.107 372.636,134.466 372.055 C 134.825 371.475,136.329 370.990,137.809 370.978 C 140.375 370.957,146.003 367.608,144.985 366.708 C 144.041 365.875,132.471 365.092,131.425 365.791 M120.448 366.916 C 121.000 367.809,112.835 370.000,108.951 370.000 C 106.021 370.000,106.605 368.125,109.750 367.432 C 111.263 367.098,112.950 366.675,113.500 366.491 C 115.627 365.782,119.909 366.044,120.448 366.916 M611.429 373.750 C 599.599 383.821,594.730 388.754,595.457 389.930 C 596.641 391.846,603.365 387.412,612.326 378.807 C 619.884 371.549,622.910 367.000,620.179 367.000 C 619.727 367.000,615.790 370.038,611.429 373.750 M165.995 369.894 C 169.559 370.885,169.532 373.076,165.912 376.779 C 163.493 379.253,161.909 380.000,159.081 380.000 C 154.693 380.000,153.000 378.568,153.000 374.857 C 153.000 370.023,158.673 367.856,165.995 369.894 M123.000 371.551 C 123.000 373.423,117.227 376.000,113.032 376.000 C 108.303 376.000,109.472 374.320,114.603 373.741 C 117.135 373.456,119.931 372.497,120.817 371.611 C 122.810 369.619,123.000 369.613,123.000 371.551 M192.250 372.703 C 191.563 372.958,191.000 374.479,191.000 376.083 C 191.000 377.688,191.563 379.075,192.250 379.168 C 193.670 379.358,196.980 379.588,201.809 379.832 C 203.830 379.935,204.866 380.408,204.470 381.048 C 204.072 381.692,202.123 381.841,199.411 381.434 C 195.910 380.909,195.000 381.074,195.000 382.231 C 195.000 385.381,200.971 388.473,202.446 386.087 C 202.757 385.585,204.806 384.871,207.001 384.500 C 210.700 383.875,210.893 383.685,209.642 381.899 C 205.878 376.525,196.009 371.307,192.250 372.703 M172.355 381.732 C 170.829 383.804,169.459 385.678,169.311 385.896 C 168.779 386.677,158.863 387.885,157.447 387.341 C 155.246 386.497,155.719 384.776,157.956 385.486 C 163.781 387.335,171.963 382.147,173.573 375.584 L 174.330 372.500 174.730 375.232 C 175.002 377.095,174.247 379.162,172.355 381.732 M395.191 380.937 C 390.621 383.016,386.369 385.231,385.741 385.859 C 385.114 386.486,382.705 387.000,380.389 387.000 C 378.073 387.000,373.775 387.859,370.839 388.908 C 362.580 391.860,350.769 395.008,348.000 394.995 C 346.625 394.988,342.575 395.642,339.000 396.446 C 327.437 399.049,311.773 401.896,300.000 403.534 C 293.675 404.414,283.550 406.008,277.500 407.076 C 271.450 408.144,265.150 409.011,263.500 409.003 C 258.314 408.975,229.836 414.274,215.000 418.027 C 210.875 419.070,204.022 420.729,199.772 421.712 C 195.522 422.695,191.922 423.950,191.772 424.500 C 191.075 427.061,203.554 425.972,226.500 421.468 C 239.714 418.874,254.511 416.172,264.000 414.620 C 269.225 413.765,277.550 412.387,282.500 411.558 C 287.450 410.729,294.650 409.781,298.500 409.452 C 312.935 408.218,353.697 399.856,369.624 394.861 C 374.643 393.288,379.300 392.000,379.973 392.000 C 380.647 392.000,382.616 391.380,384.349 390.622 C 386.082 389.864,389.624 388.482,392.221 387.550 C 397.784 385.555,409.000 379.071,409.000 377.850 C 409.000 376.016,403.113 377.333,395.191 380.937 M432.687 379.805 C 430.096 382.510,429.176 385.000,430.768 385.000 C 432.483 385.000,439.000 379.826,439.000 378.464 C 439.000 376.068,435.569 376.797,432.687 379.805 M228.128 381.750 C 229.371 383.336,229.336 383.371,227.750 382.128 C 226.787 381.373,226.000 380.585,226.000 380.378 C 226.000 379.555,226.821 380.084,228.128 381.750 M179.174 386.314 C 175.836 389.868,176.408 393.009,181.250 397.710 C 186.855 403.152,191.757 403.826,194.565 399.541 C 196.823 396.095,195.619 391.697,191.259 387.463 C 186.905 383.235,182.464 382.813,179.174 386.314 M480.000 389.073 C 480.000 390.504,480.539 391.043,481.739 390.812 C 484.345 390.310,484.636 387.000,482.073 387.000 C 480.642 387.000,480.000 387.642,480.000 389.073 M512.632 389.115 C 511.233 391.113,511.395 394.000,512.907 394.000 C 514.359 394.000,516.000 391.507,516.000 389.300 C 516.000 386.427,514.570 386.348,512.632 389.115 M183.800 389.200 C 184.460 389.860,185.000 391.055,185.000 391.855 C 185.000 393.010,184.588 392.937,183.000 391.500 C 180.946 389.641,180.383 388.000,181.800 388.000 C 182.240 388.000,183.140 388.540,183.800 389.200 M573.496 391.007 C 573.153 391.561,573.596 392.292,574.480 392.631 C 576.394 393.365,577.461 392.556,576.541 391.067 C 575.711 389.723,574.306 389.696,573.496 391.007 M590.000 392.441 C 590.000 393.234,590.470 394.172,591.044 394.527 C 592.335 395.325,595.183 393.105,594.430 391.887 C 593.534 390.438,590.000 390.880,590.000 392.441 M190.210 395.190 C 189.556 395.844,188.316 396.483,187.454 396.610 C 186.210 396.792,186.130 396.548,187.067 395.420 C 187.715 394.639,188.955 394.000,189.822 394.000 C 191.042 394.000,191.130 394.270,190.210 395.190 M401.345 396.543 C 401.019 397.392,401.037 398.370,401.384 398.718 C 402.364 399.697,409.298 397.653,409.757 396.250 C 410.397 394.298,402.096 394.587,401.345 396.543 M564.080 400.700 C 561.286 403.834,559.000 406.984,559.000 407.700 C 559.000 408.415,558.100 409.000,557.000 409.000 C 554.882 409.000,554.311 410.456,556.016 411.510 C 556.576 411.856,558.263 411.042,559.766 409.701 C 570.071 400.514,573.000 397.562,573.000 396.363 C 573.000 393.308,568.885 395.309,564.080 400.700 M580.478 399.127 C 576.375 402.909,574.743 406.000,576.850 406.000 C 577.976 406.000,585.141 400.769,586.836 398.711 C 588.191 397.065,587.680 395.000,585.919 395.000 C 585.389 395.000,582.940 396.857,580.478 399.127 M524.636 400.804 C 521.662 405.095,521.432 406.000,523.313 406.000 C 525.171 406.000,530.000 400.725,530.000 398.695 C 530.000 395.800,527.393 396.825,524.636 400.804 M393.250 399.674 C 392.012 400.538,391.000 401.837,391.000 402.563 C 391.000 405.116,393.123 405.150,395.636 402.636 C 397.034 401.239,397.886 399.624,397.530 399.048 C 396.682 397.677,395.962 397.783,393.250 399.674 M473.000 400.500 C 473.000 401.325,473.675 402.000,474.500 402.000 C 475.325 402.000,476.000 401.325,476.000 400.500 C 476.000 399.675,475.325 399.000,474.500 399.000 C 473.675 399.000,473.000 399.675,473.000 400.500 M709.185 404.050 C 708.111 407.565,452.561 661.894,451.335 660.668 C 451.150 660.483,457.187 654.303,464.749 646.935 C 500.760 611.850,706.312 406.172,707.754 403.781 C 709.696 400.563,710.221 400.662,709.185 404.050 M502.630 408.225 C 493.954 417.342,485.000 427.907,485.000 429.026 C 485.000 429.562,485.864 430.000,486.919 430.000 C 488.725 430.000,513.000 404.685,513.000 402.801 C 513.000 402.360,511.999 402.000,510.777 402.000 C 509.351 402.000,506.427 404.234,502.630 408.225 M655.345 403.543 C 654.552 405.610,655.427 406.317,657.832 405.553 C 660.977 404.555,661.412 402.000,658.437 402.000 C 657.062 402.000,655.671 402.694,655.345 403.543 M380.000 404.000 C 380.000 404.550,378.988 405.014,377.750 405.032 C 376.512 405.049,374.602 405.742,373.505 406.571 C 371.793 407.865,371.722 408.213,373.005 409.024 C 377.253 411.710,386.665 407.502,384.444 403.910 C 383.681 402.675,380.000 402.750,380.000 404.000 M568.708 407.951 C 566.300 410.503,566.193 410.915,567.632 412.109 C 568.994 413.240,569.507 413.092,571.115 411.107 C 574.914 406.415,572.789 403.628,568.708 407.951 M684.000 411.164 C 672.502 419.086,670.462 420.551,669.925 421.275 C 669.320 422.092,657.597 431.282,645.000 440.814 C 640.875 443.936,637.275 446.735,637.000 447.035 C 636.725 447.336,631.775 451.456,626.000 456.191 C 615.676 464.656,555.000 523.427,555.000 524.963 C 555.000 525.394,540.600 540.064,523.000 557.562 C 505.400 575.060,491.000 589.967,491.000 590.688 C 491.000 592.684,492.289 592.295,497.100 588.844 C 503.753 584.073,552.834 535.042,555.254 530.750 C 556.417 528.688,557.744 527.000,558.203 527.000 C 558.662 527.000,571.967 514.325,587.769 498.834 C 603.571 483.342,619.875 468.019,624.000 464.782 C 628.125 461.545,632.400 458.098,633.500 457.121 C 640.291 451.093,666.998 429.594,674.644 424.000 C 677.275 422.075,681.694 418.571,684.464 416.214 C 687.234 413.857,690.063 411.477,690.750 410.925 C 691.438 410.373,692.000 409.489,692.000 408.961 C 692.000 407.114,688.464 408.088,684.000 411.164 M360.000 410.000 C 360.000 410.550,358.902 411.000,357.559 411.000 C 354.695 411.000,353.793 412.047,354.990 413.983 C 355.686 415.110,356.566 415.155,359.674 414.220 C 361.778 413.588,364.512 412.799,365.750 412.468 C 369.685 411.414,368.467 409.000,364.000 409.000 C 361.800 409.000,360.000 409.450,360.000 410.000 M463.000 411.000 C 460.759 413.241,460.417 415.522,462.162 416.600 C 463.601 417.490,467.000 413.478,467.000 410.889 C 467.000 408.447,465.512 408.488,463.000 411.000 M502.238 424.262 C 493.857 432.656,487.000 439.856,487.000 440.262 C 487.000 441.954,490.484 440.790,494.356 437.804 C 509.618 426.033,524.036 409.000,518.738 409.000 C 518.044 409.000,510.619 415.868,502.238 424.262 M551.212 413.188 C 549.336 415.064,549.773 416.171,552.250 415.820 C 553.487 415.644,554.500 414.863,554.500 414.083 C 554.500 412.179,552.709 411.691,551.212 413.188 M641.269 415.250 C 623.906 429.313,595.511 456.720,569.003 485.000 C 536.913 519.235,508.288 547.518,494.716 558.397 C 477.556 572.152,458.590 584.316,443.000 591.565 C 439.975 592.971,436.903 594.432,436.173 594.811 C 433.728 596.080,434.469 597.497,437.743 597.813 C 442.355 598.258,467.256 585.929,479.500 577.138 C 505.167 558.711,524.664 539.992,589.000 472.006 C 597.525 462.997,614.400 446.425,626.500 435.178 C 638.600 423.931,648.645 414.115,648.823 413.365 C 649.405 410.909,645.392 411.910,641.269 415.250 M342.177 416.553 C 342.629 418.725,344.404 418.858,344.810 416.750 C 345.020 415.655,344.530 415.000,343.500 415.000 C 342.539 415.000,341.988 415.647,342.177 416.553 M188.000 416.903 C 187.175 417.335,182.453 419.013,177.507 420.630 C 171.319 422.655,168.411 424.107,168.183 425.286 C 167.773 427.417,171.227 427.636,172.928 425.587 C 173.573 424.810,176.332 423.867,179.060 423.492 C 182.143 423.068,184.505 422.117,185.301 420.981 C 186.005 419.975,187.446 419.231,188.502 419.326 C 189.621 419.427,190.574 418.769,190.785 417.750 C 191.172 415.878,190.403 415.645,188.000 416.903 M450.626 419.973 C 447.945 422.069,445.440 424.288,445.060 424.903 C 444.679 425.519,442.109 427.255,439.348 428.761 C 430.782 433.435,427.000 436.142,427.000 437.599 C 427.000 438.369,427.727 439.000,428.615 439.000 C 432.463 439.000,451.433 427.042,456.223 421.596 C 461.914 415.126,458.201 414.050,450.626 419.973 M559.345 417.543 C 559.019 418.392,559.014 419.347,559.333 419.667 C 560.342 420.676,563.000 419.128,563.000 417.531 C 563.000 415.535,560.112 415.545,559.345 417.543 M273.000 421.500 C 273.000 422.333,273.889 423.000,275.000 423.000 C 276.111 423.000,277.000 422.333,277.000 421.500 C 277.000 420.667,276.111 420.000,275.000 420.000 C 273.889 420.000,273.000 420.667,273.000 421.500 M553.200 421.200 C 552.540 421.860,552.000 423.226,552.000 424.235 C 552.000 425.823,552.304 425.910,554.250 424.885 C 556.535 423.682,557.957 422.108,557.985 420.750 C 558.009 419.554,554.517 419.883,553.200 421.200 M181.177 427.667 C 181.663 430.176,184.000 430.520,184.000 428.083 C 184.000 426.855,183.354 426.000,182.427 426.000 C 181.495 426.000,180.985 426.680,181.177 427.667 M173.694 427.639 C 172.761 428.573,173.888 430.000,175.559 430.000 C 176.352 430.000,177.000 429.325,177.000 428.500 C 177.000 426.994,174.889 426.444,173.694 427.639 M540.390 429.629 C 531.667 435.524,527.448 438.558,526.500 439.619 C 525.538 440.696,517.047 446.682,508.810 452.092 C 499.249 458.371,477.863 478.076,467.476 490.176 C 462.602 495.854,458.069 500.968,457.404 501.540 C 456.738 502.112,453.112 506.439,449.346 511.156 C 427.399 538.649,407.448 559.939,392.500 571.814 C 384.534 578.143,377.000 585.087,377.000 586.101 C 377.000 591.591,395.916 577.778,415.071 558.300 C 427.511 545.651,442.449 528.567,452.500 515.493 C 469.213 493.754,496.043 467.670,515.797 453.955 C 520.910 450.405,526.310 446.469,527.797 445.210 C 529.283 443.950,534.435 440.125,539.245 436.710 C 544.527 432.959,547.992 429.807,547.995 428.750 C 548.002 426.214,544.915 426.571,540.390 429.629 M225.167 431.299 C 223.723 433.039,224.638 434.000,227.740 434.000 C 229.488 434.000,230.055 433.524,229.812 432.261 C 229.386 430.052,226.669 429.489,225.167 431.299 M477.123 434.598 C 473.935 437.987,473.090 439.490,473.914 440.314 C 474.738 441.138,476.225 440.187,479.565 436.701 C 483.523 432.570,484.521 430.000,482.166 430.000 C 481.772 430.000,479.503 432.069,477.123 434.598 M461.250 441.031 C 460.012 441.529,459.000 442.400,459.000 442.968 C 459.000 443.535,458.242 444.000,457.316 444.000 C 453.973 444.000,447.000 448.116,447.000 450.089 C 447.000 452.369,449.256 452.601,451.000 450.500 C 451.685 449.675,452.804 449.000,453.488 449.000 C 454.171 449.000,455.874 448.100,457.273 447.000 C 458.671 445.900,460.462 445.000,461.253 445.000 C 463.031 445.000,466.251 441.584,465.336 440.669 C 464.516 439.849,464.098 439.886,461.250 441.031 M411.750 442.299 C 410.213 442.907,409.000 444.157,409.000 445.134 C 409.000 447.607,411.087 448.595,412.181 446.640 C 412.686 445.738,414.147 445.000,415.427 445.000 C 417.870 445.000,420.452 442.786,419.325 441.658 C 418.398 440.732,414.987 441.020,411.750 442.299 M480.655 442.829 C 479.093 444.555,478.356 448.000,479.550 448.000 C 481.027 448.000,485.823 444.903,486.310 443.635 C 487.490 440.559,483.256 439.955,480.655 442.829 M180.918 444.145 C 187.417 445.275,196.714 448.620,195.825 449.508 C 195.574 449.760,193.833 449.526,191.958 448.988 C 190.083 448.450,182.592 447.483,175.313 446.838 C 160.689 445.544,146.235 446.586,129.761 450.123 C 124.954 451.156,118.623 452.000,115.692 452.000 C 112.761 452.000,107.919 452.679,104.932 453.508 C 83.952 459.333,76.520 461.041,61.260 463.543 C 52.392 464.997,51.869 464.978,48.260 463.073 C 44.645 461.165,44.604 461.087,47.203 461.044 C 48.690 461.020,51.071 461.531,52.495 462.180 C 55.662 463.623,65.275 461.784,98.000 453.475 C 101.025 452.707,109.350 451.145,116.500 450.005 C 123.650 448.865,133.100 447.272,137.500 446.465 C 141.900 445.659,148.875 444.973,153.000 444.942 C 157.125 444.910,162.300 444.512,164.500 444.057 C 170.345 442.848,173.563 442.865,180.918 444.145 M547.455 453.455 C 544.549 456.360,544.259 459.000,546.845 459.000 C 549.265 459.000,552.000 455.907,552.000 453.171 C 552.000 450.329,550.486 450.423,547.455 453.455 M452.667 452.667 C 451.399 453.934,452.008 455.000,454.000 455.000 C 455.111 455.000,456.000 454.333,456.000 453.500 C 456.000 451.978,453.885 451.449,452.667 452.667 M434.533 453.947 C 433.653 455.370,434.775 457.000,436.632 457.000 C 437.508 457.000,438.010 456.297,437.823 455.333 C 437.434 453.324,435.437 452.484,434.533 453.947 M407.533 461.947 C 407.175 462.526,405.784 463.000,404.441 463.000 C 401.770 463.000,401.003 465.680,403.410 466.604 C 405.276 467.320,411.232 464.196,410.751 462.754 C 410.223 461.170,408.310 460.690,407.533 461.947 M534.955 469.348 C 526.463 479.374,519.705 489.208,508.404 507.987 C 502.760 517.366,494.691 528.471,489.620 533.839 C 481.005 542.960,473.035 552.519,473.017 553.750 C 472.973 556.939,477.122 554.241,485.319 545.750 C 495.002 535.720,501.596 527.260,510.531 513.399 C 513.685 508.504,517.782 502.174,519.633 499.331 C 521.485 496.487,523.000 493.895,523.000 493.570 C 523.000 492.372,533.917 477.489,541.125 468.861 C 543.256 466.310,545.000 463.497,545.000 462.611 C 545.000 459.156,541.734 461.346,534.955 469.348 M131.445 463.959 C 130.315 464.417,127.953 466.429,126.195 468.430 C 121.876 473.350,122.031 476.841,127.000 486.500 C 129.200 490.777,131.000 494.747,131.000 495.322 C 131.000 498.040,135.602 505.400,138.387 507.137 C 144.715 511.082,152.000 506.624,152.000 498.805 C 152.000 496.005,152.956 493.167,155.041 489.778 C 159.419 482.663,159.726 479.913,156.715 474.788 C 151.628 466.130,139.217 460.811,131.445 463.959 M304.345 467.543 C 304.019 468.392,303.923 469.257,304.132 469.465 C 304.842 470.175,329.863 470.471,330.556 469.777 C 330.936 469.397,330.981 468.392,330.655 467.543 C 329.775 465.251,305.225 465.251,304.345 467.543 M393.175 467.669 C 393.599 469.870,397.500 470.169,397.500 468.000 C 397.500 467.175,396.447 466.351,395.161 466.169 C 393.347 465.912,392.901 466.249,393.175 467.669 M285.000 468.807 C 281.425 469.738,278.607 470.950,278.738 471.500 C 279.014 472.653,289.273 473.399,292.773 472.521 C 294.503 472.087,295.046 471.343,294.815 469.725 C 294.409 466.884,292.916 466.745,285.000 468.807 M338.406 468.152 C 337.577 469.494,340.614 472.000,343.069 472.000 C 343.996 472.000,345.344 471.291,346.063 470.424 C 347.147 469.117,347.126 468.692,345.936 467.939 C 343.903 466.653,339.252 466.784,338.406 468.152 M144.078 472.570 C 148.176 476.279,144.566 484.000,138.732 484.000 C 131.877 484.000,127.260 475.090,132.250 471.491 C 135.023 469.491,141.309 470.065,144.078 472.570 M268.000 472.732 C 262.014 473.833,261.916 477.000,267.868 477.000 C 272.049 477.000,275.686 474.919,274.594 473.152 C 273.873 471.986,272.526 471.900,268.000 472.732 M152.414 480.951 C 152.084 482.903,150.955 485.719,149.907 487.210 C 148.858 488.700,148.000 490.586,148.000 491.400 C 148.000 494.112,146.223 494.027,145.535 491.282 C 145.080 489.471,145.317 488.235,146.253 487.539 C 149.502 485.123,151.129 481.211,150.499 477.333 C 149.913 473.728,149.969 473.616,151.446 475.451 C 152.534 476.805,152.831 478.490,152.414 480.951 M274.250 480.601 C 271.934 481.649,272.976 483.745,276.125 484.375 C 284.245 485.999,292.898 484.498,290.313 481.913 C 289.077 480.677,276.377 479.639,274.250 480.601 M104.000 482.791 C 102.625 483.718,100.955 485.208,100.290 486.101 C 97.893 489.316,93.347 490.396,87.610 489.112 C 84.711 488.463,81.476 488.246,80.420 488.629 C 76.568 490.026,73.000 493.186,73.000 495.200 C 73.000 498.371,76.710 503.658,80.642 506.087 C 83.948 508.131,84.539 508.190,89.588 506.979 C 94.450 505.813,95.339 505.867,98.414 507.524 C 101.805 509.350,101.875 509.345,106.495 506.933 C 109.059 505.595,113.146 502.581,115.578 500.235 C 119.052 496.886,120.000 495.263,120.000 492.672 C 120.000 489.038,116.877 485.427,111.300 482.614 C 107.423 480.659,107.152 480.665,104.000 482.791 M263.695 483.700 C 262.702 483.957,262.062 484.693,262.272 485.334 C 262.706 486.656,269.361 487.463,271.855 486.495 C 273.326 485.925,273.295 485.706,271.559 484.429 C 269.640 483.016,267.203 482.791,263.695 483.700 M252.431 485.112 C 251.725 486.254,253.621 487.957,255.628 487.985 C 257.124 488.005,259.160 485.493,258.325 484.658 C 257.258 483.591,253.176 483.906,252.431 485.112 M110.000 487.413 C 110.000 487.641,107.880 489.858,105.289 492.341 C 100.730 496.710,100.422 496.837,95.723 496.281 C 91.068 495.729,90.743 495.857,87.853 499.362 C 86.195 501.373,84.410 502.754,83.886 502.430 C 83.362 502.106,84.073 500.944,85.466 499.848 C 86.860 498.752,88.000 497.261,88.000 496.534 C 88.000 494.586,90.482 493.967,95.524 494.658 C 99.072 495.145,100.000 494.967,100.000 493.803 C 100.000 492.996,101.688 491.179,103.750 489.767 C 107.163 487.430,110.000 486.361,110.000 487.413 M139.000 488.689 C 140.110 489.067,139.881 489.439,138.121 490.116 C 136.539 490.724,135.283 490.650,134.371 489.893 C 131.377 487.408,133.569 486.838,139.000 488.689 M114.559 493.532 C 113.491 494.339,112.236 495.000,111.768 495.000 C 110.547 495.000,104.867 499.149,102.871 501.500 C 101.937 502.600,100.847 503.176,100.449 502.779 C 98.834 501.171,111.155 492.108,115.000 492.076 C 116.129 492.067,116.020 492.427,114.559 493.532 M141.298 493.967 C 140.690 496.293,138.226 498.559,137.305 497.639 C 136.950 497.283,137.714 495.869,139.004 494.496 C 141.829 491.489,141.954 491.460,141.298 493.967 M247.500 492.924 C 253.134 493.754,265.549 497.785,264.794 498.539 C 264.605 498.729,260.636 498.021,255.975 496.967 C 251.096 495.864,243.658 495.040,238.444 495.026 C 229.814 495.001,227.916 495.379,213.750 499.941 C 211.674 500.609,211.000 500.497,211.000 499.481 C 211.000 497.812,212.718 497.251,226.500 494.418 C 239.311 491.785,239.619 491.763,247.500 492.924 M85.433 494.911 C 83.885 496.367,78.000 497.292,78.000 496.079 C 78.000 495.486,79.323 495.000,80.941 495.000 C 82.559 495.000,84.179 494.520,84.541 493.933 C 84.904 493.347,85.463 493.129,85.783 493.450 C 86.104 493.771,85.947 494.428,85.433 494.911 M145.231 500.231 C 143.489 501.972,141.782 503.115,141.437 502.770 C 141.091 502.425,142.314 500.798,144.154 499.154 C 148.499 495.272,149.344 496.117,145.231 500.231 M96.582 500.000 C 97.362 500.000,98.000 500.450,98.000 501.000 C 98.000 501.550,96.650 502.000,95.000 502.000 C 92.911 502.000,92.000 501.512,92.000 500.393 C 92.000 499.338,92.544 498.995,93.582 499.393 C 94.452 499.727,95.802 500.000,96.582 500.000 M207.977 502.310 C 206.615 503.581,202.800 505.637,199.500 506.880 C 196.200 508.122,192.750 509.538,191.834 510.026 C 186.337 512.951,170.184 513.608,167.629 511.010 C 166.780 510.148,168.032 510.034,172.667 510.551 C 176.510 510.980,180.843 510.772,184.167 510.000 C 189.017 508.873,204.342 503.071,208.000 500.976 C 210.559 499.511,210.552 499.909,207.977 502.310 M221.454 504.741 C 221.895 505.891,221.385 507.080,219.950 508.241 C 217.285 510.400,215.632 510.466,213.984 508.481 C 212.953 507.238,213.050 506.603,214.517 504.981 C 216.731 502.534,220.557 502.402,221.454 504.741 M225.935 513.170 C 221.066 517.369,219.357 517.779,216.441 515.449 C 214.615 513.989,214.731 513.919,218.404 514.266 C 221.724 514.579,222.771 514.159,225.404 511.458 C 227.107 509.711,228.921 508.521,229.435 508.814 C 229.949 509.107,228.374 511.067,225.935 513.170 M122.223 510.557 C 118.984 512.825,119.328 517.281,123.105 521.981 C 127.087 526.936,130.618 528.476,134.562 526.977 C 138.673 525.413,144.153 521.057,143.447 519.914 C 143.122 519.388,139.896 516.718,136.279 513.979 C 129.287 508.686,126.027 507.892,122.223 510.557 M256.088 513.394 C 255.195 514.470,255.297 515.154,256.537 516.394 C 259.294 519.151,263.000 517.664,263.000 513.800 C 263.000 511.576,257.848 511.274,256.088 513.394 M128.499 513.998 C 128.838 514.547,128.454 515.941,127.645 517.096 C 126.203 519.155,126.155 519.158,125.134 517.251 C 123.647 514.473,126.868 511.359,128.499 513.998 M263.213 518.273 C 259.057 522.697,261.644 526.226,267.431 524.026 C 269.708 523.160,270.078 522.496,269.813 519.751 C 269.415 515.618,266.352 514.932,263.213 518.273 M134.000 518.800 C 134.000 520.102,131.714 522.000,130.145 522.000 C 128.990 522.000,129.063 521.588,130.500 520.000 C 132.359 517.946,134.000 517.383,134.000 518.800 M143.534 524.963 C 141.300 527.431,142.201 530.000,145.300 530.000 C 147.851 530.000,150.736 526.000,149.559 524.095 C 148.496 522.376,145.482 522.810,143.534 524.963 M235.250 531.792 C 237.549 533.786,237.468 535.000,235.035 535.000 C 233.955 535.000,232.589 534.100,232.000 533.000 C 231.411 531.900,230.045 531.000,228.965 531.000 C 227.884 531.000,227.000 530.561,227.000 530.025 C 227.000 528.643,233.134 529.957,235.250 531.792 M204.718 531.250 C 204.072 533.053,205.820 536.000,207.535 536.000 C 208.496 536.000,209.000 534.968,209.000 533.000 C 209.000 530.710,208.546 530.000,207.083 530.000 C 206.029 530.000,204.965 530.563,204.718 531.250 M226.683 534.188 C 226.364 534.985,226.127 534.748,226.079 533.583 C 226.036 532.529,226.272 531.939,226.604 532.271 C 226.936 532.603,226.972 533.466,226.683 534.188 M145.750 534.507 C 142.594 536.294,142.245 538.949,144.468 544.269 C 148.943 554.979,158.411 556.992,164.054 548.433 C 168.910 541.066,164.449 534.148,154.356 533.390 C 150.225 533.080,147.690 533.409,145.750 534.507 M155.000 539.021 C 155.000 540.386,150.192 542.525,149.247 541.581 C 148.384 540.718,151.757 538.000,153.691 538.000 C 154.411 538.000,155.000 538.460,155.000 539.021 M158.002 544.497 C 156.786 545.792,156.089 547.335,156.454 547.926 C 157.429 549.503,154.692 549.234,152.441 547.532 C 150.542 546.096,150.547 546.063,152.674 546.032 C 153.870 546.014,155.895 544.719,157.174 543.154 C 158.453 541.588,159.661 540.720,159.857 541.225 C 160.054 541.730,159.219 543.202,158.002 544.497 M362.192 546.075 C 362.389 546.666,362.978 547.150,363.500 547.150 C 364.022 547.150,364.611 546.666,364.808 546.075 C 365.005 545.484,364.417 545.000,363.500 545.000 C 362.583 545.000,361.995 545.484,362.192 546.075 M355.570 548.887 C 354.889 549.988,357.438 552.229,358.342 551.325 C 358.704 550.963,359.000 550.067,359.000 549.333 C 359.000 547.844,356.422 547.508,355.570 548.887 M189.809 550.813 C 185.751 553.273,184.801 556.185,186.493 560.982 C 189.957 570.798,201.068 574.211,204.048 566.374 C 205.722 561.970,205.199 556.614,202.901 554.648 C 199.903 552.080,194.674 548.992,193.500 549.095 C 192.950 549.143,191.289 549.917,189.809 550.813 M254.282 553.539 C 265.252 553.754,275.163 553.508,276.532 552.988 C 278.399 552.278,279.000 552.377,279.000 553.397 C 279.000 555.510,273.143 555.947,251.519 555.449 C 236.340 555.100,230.512 554.597,227.269 553.359 C 221.123 551.011,222.016 550.015,228.750 551.707 C 232.437 552.634,241.598 553.291,254.282 553.539 M283.000 552.393 C 283.000 552.609,282.325 553.045,281.500 553.362 C 280.675 553.678,280.000 553.501,280.000 552.969 C 280.000 552.436,280.675 552.000,281.500 552.000 C 282.325 552.000,283.000 552.177,283.000 552.393 M195.000 555.929 C 195.000 556.439,194.233 557.625,193.295 558.563 C 191.257 560.601,190.136 558.746,192.028 556.466 C 193.398 554.815,195.000 554.525,195.000 555.929 M345.177 556.553 C 345.629 558.725,347.404 558.858,347.810 556.750 C 348.020 555.655,347.530 555.000,346.500 555.000 C 345.539 555.000,344.988 555.647,345.177 556.553 M370.177 556.553 C 370.629 558.725,372.404 558.858,372.810 556.750 C 373.020 555.655,372.530 555.000,371.500 555.000 C 370.539 555.000,369.988 555.647,370.177 556.553 M466.667 558.667 C 466.300 559.033,466.000 560.191,466.000 561.240 C 466.000 563.965,469.416 563.071,469.820 560.240 C 470.127 558.083,468.208 557.125,466.667 558.667 M198.758 562.697 C 197.274 564.180,195.792 565.126,195.464 564.798 C 194.743 564.076,198.950 560.000,200.416 560.000 C 200.987 560.000,200.241 561.214,198.758 562.697 M305.000 562.441 C 305.000 562.684,304.480 563.203,303.845 563.595 C 303.130 564.038,302.962 563.870,303.405 563.155 C 304.117 562.002,305.000 561.607,305.000 562.441 M300.940 565.489 C 300.121 566.307,296.312 567.848,292.476 568.912 C 288.639 569.976,283.535 571.571,281.134 572.458 C 278.733 573.345,274.683 574.313,272.134 574.609 C 263.690 575.592,260.218 577.811,252.898 586.908 C 247.258 593.916,246.285 595.645,247.287 596.885 C 248.141 597.940,248.155 598.177,247.335 597.686 C 246.695 597.302,246.011 597.468,245.815 598.056 C 245.565 598.805,244.643 598.815,242.729 598.087 C 239.351 596.803,239.168 595.000,242.415 595.000 C 244.136 595.000,245.840 593.635,248.345 590.250 C 250.279 587.638,254.517 582.889,257.762 579.698 C 263.123 574.427,264.206 573.814,269.582 572.999 C 276.415 571.964,281.459 570.645,288.500 568.052 C 293.699 566.137,299.799 564.278,301.464 564.102 C 301.995 564.046,301.759 564.670,300.940 565.489 M347.654 573.143 C 350.670 574.272,352.994 575.334,352.819 575.504 C 352.644 575.674,348.503 574.961,343.619 573.920 C 334.135 571.900,330.567 572.173,327.711 575.141 C 326.727 576.163,325.354 577.000,324.659 577.000 C 322.756 577.000,309.991 585.845,303.885 591.394 C 299.487 595.390,299.096 595.981,301.750 594.618 C 303.538 593.700,305.000 593.083,305.000 593.246 C 305.000 593.410,302.975 595.749,300.500 598.445 C 298.025 601.141,296.000 602.960,296.000 602.488 C 296.000 602.015,296.934 600.635,298.075 599.420 C 299.264 598.155,299.731 596.952,299.169 596.604 C 297.758 595.732,290.720 603.912,281.550 617.082 C 271.541 631.457,264.649 638.768,260.006 639.936 C 255.391 641.098,252.608 640.751,250.624 638.767 C 249.128 637.271,249.414 637.187,254.317 637.693 C 258.079 638.082,260.515 637.785,262.656 636.678 C 265.739 635.084,273.994 625.501,280.038 616.500 C 292.336 598.186,308.223 583.859,330.256 571.212 C 333.096 569.582,340.261 570.378,347.654 573.143 M477.858 596.348 C 473.682 599.217,464.581 604.396,457.633 607.855 C 450.685 611.314,445.000 614.562,445.000 615.072 C 445.000 616.679,451.564 616.080,456.123 614.057 C 461.981 611.458,476.395 603.270,482.132 599.285 C 487.210 595.757,488.526 593.682,486.666 592.138 C 485.799 591.418,483.274 592.625,477.858 596.348 M300.000 596.500 C 300.000 596.775,300.225 597.000,300.500 597.000 C 300.775 597.000,301.000 596.775,301.000 596.500 C 301.000 596.225,300.775 596.000,300.500 596.000 C 300.225 596.000,300.000 596.225,300.000 596.500 M428.000 598.878 C 428.000 599.360,428.615 600.266,429.367 600.890 C 430.400 601.747,431.010 601.693,431.859 600.670 C 432.477 599.925,432.687 599.020,432.325 598.658 C 431.354 597.688,428.000 597.858,428.000 598.878 M436.701 616.632 C 435.127 618.207,436.061 620.130,438.250 619.820 C 439.488 619.644,440.500 618.831,440.500 618.014 C 440.500 616.425,437.866 615.467,436.701 616.632 M303.722 622.868 C 301.591 623.353,300.379 624.724,298.511 628.767 C 297.172 631.664,296.294 634.589,296.560 635.267 C 297.210 636.922,303.236 640.770,306.437 641.573 C 311.161 642.759,315.927 641.167,318.044 637.696 C 320.644 633.432,320.541 632.686,316.766 628.386 C 314.150 625.407,308.059 621.583,306.782 622.118 C 306.627 622.183,305.250 622.521,303.722 622.868 M290.608 624.579 C 289.447 627.604,291.046 631.000,293.630 631.000 C 296.307 631.000,298.679 627.213,297.663 624.564 C 296.863 622.479,291.409 622.491,290.608 624.579 M359.955 626.469 C 353.248 630.041,351.769 632.093,351.769 637.831 C 351.769 646.446,358.802 655.000,365.884 655.000 C 368.184 655.000,375.883 649.476,376.741 647.210 C 377.097 646.269,377.976 644.905,378.694 644.179 C 379.494 643.369,380.000 640.386,380.000 636.479 C 380.000 630.424,379.831 629.973,376.659 627.554 C 371.772 623.826,365.662 623.429,359.955 626.469 M278.127 627.750 C 277.608 628.712,276.046 630.564,274.656 631.864 C 272.190 634.170,272.141 634.176,272.687 632.090 C 272.994 630.914,274.376 629.063,275.758 627.976 C 278.850 625.544,279.341 625.497,278.127 627.750 M307.000 629.500 C 307.000 630.325,306.339 631.000,305.531 631.000 C 304.637 631.000,304.288 630.414,304.638 629.500 C 304.955 628.675,305.616 628.000,306.107 628.000 C 306.598 628.000,307.000 628.675,307.000 629.500 M368.812 630.701 C 369.280 633.973,363.130 643.000,360.434 643.000 C 358.308 643.000,357.837 638.146,359.602 634.427 C 362.493 628.333,368.146 626.046,368.812 630.701 M314.355 634.517 C 314.075 635.247,313.182 636.100,312.371 636.411 C 311.392 636.787,311.140 636.560,311.620 635.739 C 312.018 635.057,311.479 635.256,310.421 636.179 C 308.896 637.512,308.086 637.626,306.499 636.731 C 304.573 635.645,304.592 635.582,307.000 635.019 C 308.375 634.698,309.936 633.456,310.469 632.260 C 311.352 630.277,311.588 630.222,313.151 631.637 C 314.094 632.490,314.636 633.786,314.355 634.517 M372.589 640.436 C 367.191 648.273,364.581 650.458,362.333 649.021 C 360.777 648.026,360.759 647.929,362.219 648.381 C 364.223 649.002,369.451 643.040,373.076 636.000 C 374.805 632.641,375.494 631.971,375.790 633.355 C 376.009 634.376,374.569 637.561,372.589 640.436 M335.667 644.667 C 334.412 645.921,334.999 648.689,336.881 650.392 C 338.615 651.961,338.889 651.968,340.381 650.476 C 341.272 649.586,342.000 647.764,342.000 646.429 C 342.000 644.429,341.500 644.000,339.167 644.000 C 337.608 644.000,336.033 644.300,335.667 644.667 M342.750 650.484 C 339.523 653.324,339.217 655.617,341.950 656.484 C 343.935 657.114,349.333 654.888,350.535 652.944 C 351.282 651.735,348.273 647.983,346.595 648.032 C 345.993 648.049,344.262 649.152,342.750 650.484 " stroke="none" fill="#000000" fill-rule="evenodd"/></svg>